# xmcd
#
# Track frame offsets: 
#        182
#        20900
#        39185
#        53992
#        63492
#        76390
#        86285
#        103280
#        115577
#        128220
#
# Disc length: 2065 seconds
#
# Revision: 2
# Processed by: cddbd v1.4PL0 Copyright (c) Steve Scherf et al.
# Submitted via: ExactAudioCopy v0.90b4
#
DISCID=7e080f0a
DTITLE=Hank Williams Jr. - Man of Steel
DYEAR=1983
DGENRE=Other
TTITLE0=Man Of Steel
TTITLE1=The Air That I Breathe
TTITLE2=Woman On The Run
TTITLE3=She Had Me
TTITLE4=Midnight Rider
TTITLE5=Lovesick Blues
TTITLE6=Queen Of My Heart
TTITLE7=Now I Know How George Feels
TTITLE8=It Just Don't Get It No More
TTITLE9=Orange Blossom Special
EXTD=
EXTT0=
EXTT1=
EXTT2=
EXTT3=
EXTT4=
EXTT5=
EXTT6=
EXTT7=
EXTT8=
EXTT9=
PLAYORDER=
